<?xml version="1.0" encoding="UTF-8" standalone="no"?>
<!-- Created with Inkscape (http://www.inkscape.org/) -->

<svg
   width="15.90615"
   height="14.240164"
   viewBox="0 0 15.90615 14.240164"
   version="1.1"
   id="svg5"
   sodipodi:docname="corazon.svg"
   inkscape:version="1.1.1 (3bf5ae0d25, 2021-09-20)"
   xmlns:inkscape="http://www.inkscape.org/namespaces/inkscape"
   xmlns:sodipodi="http://sodipodi.sourceforge.net/DTD/sodipodi-0.dtd"
   xmlns="http://www.w3.org/2000/svg"
   xmlns:svg="http://www.w3.org/2000/svg">
  <sodipodi:namedview
     id="namedview7"
     pagecolor="#ffffff"
     bordercolor="#666666"
     borderopacity="1.0"
     inkscape:pageshadow="2"
     inkscape:pageopacity="0.0"
     inkscape:pagecheckerboard="0"
     inkscape:document-units="px"
     showgrid="false"
     inkscape:zoom="22.627417"
     inkscape:cx="6.9605824"
     inkscape:cy="9.7890095"
     inkscape:window-width="1440"
     inkscape:window-height="837"
     inkscape:window-x="-8"
     inkscape:window-y="-8"
     inkscape:window-maximized="1"
     inkscape:current-layer="layer1"
     fit-margin-top="0"
     fit-margin-left="0"
     fit-margin-right="0"
     fit-margin-bottom="0" />
  <defs
     id="defs2" />
  <g
     inkscape:label="Capa 1"
     inkscape:groupmode="layer"
     id="layer1"
     transform="translate(-0.04692492,-0.87991809)">
    <path
       style="fill:#ffffff;stroke:#000000;stroke-width:0;stroke-linecap:butt;stroke-linejoin:miter;stroke-miterlimit:4;stroke-dasharray:none;stroke-opacity:1"
       d="m 8.0101725,2.4796365 c 0,0 0.7894986,-0.7119191 1.2369635,-0.9939885 0.2695121,-0.1698929 0.5555872,-0.3248688 0.861456,-0.4139993 0.491233,-0.14314521 1.013804,-0.21955456 1.524116,-0.18239418 0.730367,0.0531856 1.480696,0.21807008 2.120509,0.57430458 0.577475,0.3215259 1.066748,0.814461 1.448702,1.3538759 0.258791,0.3654793 0.414711,0.8003402 0.539275,1.2304938 0.13077,0.4515925 0.207421,0.8240693 0.211737,1.3944542 0.0076,1.0158593 -0.288269,2.1160014 -0.896485,2.912829 -1.821998,2.387018 -6.6486781,6.626589 -6.6486781,6.626589 -0.3757579,0.281108 -0.5916473,0.0725 -0.773102,-0.08835 0,0 -4.804081,-4.225113 -6.6330591,-6.8140179 C 0.62021359,7.5395702 0.29464582,6.939695 0.12453114,6.3009697 0.03339683,5.9587901 0.03969921,5.594336 0.05826451,5.2407154 0.07680721,4.8875272 0.13941244,4.5350303 0.23497286,4.1945103 0.31959747,3.8929591 0.45001395,3.6052794 0.5833701,3.3218883 0.80212336,2.8570221 1.1532943,2.4007683 1.5525343,2.0460283 1.9363404,1.7050021 2.4040473,1.4572489 2.8801525,1.2650773 3.2525268,1.1147748 3.6520118,1.0239294 4.0515791,0.98393487 4.6269826,0.92634012 5.223222,0.910449 5.7852904,1.046411 6.2380473,1.1559308 6.6604682,1.3851549 7.0504311,1.6399338 7.4062889,1.8724304 8.0101725,2.4796365 8.0101725,2.4796365 Z"
       id="path5554"
       sodipodi:nodetypes="caaaaaassssaaaasaaaaac" />
    <path
       style="fill:#ff80ba;fill-opacity:1;stroke:#000000;stroke-width:0;stroke-linecap:butt;stroke-linejoin:miter;stroke-miterlimit:4;stroke-dasharray:none;stroke-opacity:1"
       d="m 8.0764386,13.303066 c 0,0 3.4409664,-3.262878 5.0362084,-5.0141195 C 13.517679,7.8443059 13.995119,7.4367402 14.261255,6.8973626 14.516171,6.3807248 14.696078,5.7875021 14.649702,5.2132671 14.598636,4.5809605 14.329695,3.9440841 13.929926,3.4515363 13.565723,3.0028095 13.0467,2.6490641 12.494165,2.4796365 c -0.612425,-0.1877921 -1.300772,-0.1573697 -1.921711,0 C 9.9717607,2.6592 9.583719,2.8775012 9.1808698,3.2969159 8.8342665,3.6577717 8.531557,4.1762451 8.0543498,4.1804609 7.4827125,4.1855109 7.1359248,3.5473416 6.6864245,3.146085 6.1654581,2.6810326 5.5791583,2.3967123 4.9398529,2.3250161 4.3255726,2.2561265 3.674577,2.4328204 3.128585,2.7226113 2.5982102,3.0041132 2.0956592,3.4285553 1.8226761,3.9633646 1.5226859,4.5510842 1.4516783,5.2746084 1.5602921,5.9254629 c 0.11653,0.6982911 0.5000878,1.4133242 0.9498115,1.8996224 1.7873863,1.9327488 5.566335,5.4779807 5.566335,5.4779807 z"
       id="path13244"
       sodipodi:nodetypes="caaaaacsasaaaasc" />
  </g>
</svg>
